<svg xmlns="http://www.w3.org/2000/svg" xmlns:xlink="http://www.w3.org/1999/xlink" id="Layer_1" x="0" y="0" enable-background="new 0 0 150 150" version="1.1" viewBox="0 0 150 150" xml:space="preserve"><style type="text/css">.st0{fill-rule:evenodd;clip-rule:evenodd;fill:#89939c}</style><path d="M57.2,90.5c18.7,0,33.9-15.2,33.9-33.9c0-18.7-15.2-33.9-33.9-33.9S23.3,37.9,23.3,56.6	C23.3,75.3,38.4,90.5,57.2,90.5z M85.2,105.8c-8.3,4.7-17.9,7.4-28.1,7.4c-31.3,0-56.6-25.3-56.6-56.6C0.6,25.3,25.9,0,57.2,0	c31.3,0,56.6,25.3,56.6,56.6c0,10.8-3,20.9-8.3,29.5c0.2,0.2,0.4,0.4,0.6,0.6l39.2,39.2c5.5,5.5,5.5,14.5,0,20	c-5.5,5.5-14.5,5.5-20,0l-39.2-39.2C85.8,106.4,85.5,106.1,85.2,105.8L85.2,105.8z" class="st0"/></svg>